<?xml version="1.0" encoding="UTF-8" standalone="no"?>
<svg width="60px" height="60px" viewBox="0 0 60 60" version="1.1" xmlns="http://www.w3.org/2000/svg" xmlns:xlink="http://www.w3.org/1999/xlink">
    <!-- Generator: Sketch 41.2 (35397) - http://www.bohemiancoding.com/sketch -->
    <title>icon_yycg</title>
    <desc>Created with Sketch.</desc>
    <defs></defs>
    <g id="Symbols" stroke="none" stroke-width="1" fill="none" fill-rule="evenodd">
        <g id="icon_yycg">
            <g>
                <path d="M0,30 C0,46.5684706 13.4315294,60 30,60 C46.5684706,60 60,46.5684706 60,30 C60,13.4315294 46.5684706,0 30,0 C13.4315294,0 0,13.4315294 0,30" id="Fill-1" fill="#2DBBEC"></path>
                <path d="M9.01969412,35.4402 L19.9361647,28.8680824 L25.2832235,39.0049059 C25.2832235,39.0049059 27.6225176,31.4300824 33.8604,23.1867882 C40.0986353,14.9438471 46.6707529,11.7133765 46.6707529,11.7133765 C46.6707529,11.7133765 46.3365176,17.2831412 46.5595765,20.4020824 C46.7822824,23.5210235 47.4504,26.4172588 47.4504,26.4172588 C47.4504,26.4172588 40.9898118,29.3134941 34.3061647,37.4452588 C27.6225176,45.5770235 25.5059294,49.6986706 25.5059294,49.6986706 C25.5059294,49.6986706 21.3842824,44.1289059 17.1514588,40.7872588 C12.9186353,37.4452588 9.01969412,35.4402 9.01969412,35.4402" id="Fill-3" fill="#FFFFFF"></path>
            </g>
        </g>
    </g>
</svg>