<?xml version="1.0" encoding="UTF-8" standalone="no"?>
<svg width="40px" height="40px" viewBox="0 0 40 40" version="1.1" xmlns="http://www.w3.org/2000/svg" xmlns:xlink="http://www.w3.org/1999/xlink">
    <!-- Generator: Sketch 41.2 (35397) - http://www.bohemiancoding.com/sketch -->
    <title>icon_yiyue</title>
    <desc>Created with Sketch.</desc>
    <defs>
        <linearGradient x1="69.436849%" y1="-5.83658854%" x2="-10.797526%" y2="80.0683594%" id="linearGradient-1">
            <stop stop-color="#FFAA00" offset="0%"></stop>
            <stop stop-color="#FF0000" offset="100%"></stop>
        </linearGradient>
        <path d="M16,0 L40,0 L0,40 L0,16 L16,2.22044605e-15 Z" id="path-2"></path>
        <filter x="-50%" y="-50%" width="200%" height="200%" filterUnits="objectBoundingBox" id="filter-3">
            <feOffset dx="1" dy="1" in="SourceAlpha" result="shadowOffsetOuter1"></feOffset>
            <feGaussianBlur stdDeviation="1" in="shadowOffsetOuter1" result="shadowBlurOuter1"></feGaussianBlur>
            <feColorMatrix values="0 0 0 0 0   0 0 0 0 0   0 0 0 0 0  0 0 0 0.3 0" type="matrix" in="shadowBlurOuter1"></feColorMatrix>
        </filter>
    </defs>
    <g id="Symbols" stroke="none" stroke-width="1" fill="none" fill-rule="evenodd">
        <g id="icon_yiyue">
            <g>
                <g id="Combined-Shape">
                    <use fill="black" fill-opacity="1" filter="url(#filter-3)" xlink:href="#path-2"></use>
                    <use fill="url(#linearGradient-1)" fill-rule="evenodd" xlink:href="#path-2"></use>
                </g>
                <path d="M12.164,13.812 L12.164,8.676 L2.996,8.676 L2.996,9.876 L10.892,9.876 L10.892,12.612 L4.772,12.612 L4.772,11.028 L3.512,11.028 L3.512,17.256 C3.512,18.324 4.016,18.864 5.048,18.864 L11.732,18.864 C12.212,18.84 12.596,18.696 12.884,18.432 C13.124,18.168 13.328,17.268 13.484,15.732 L12.26,15.348 C12.188,16.572 12.08,17.28 11.912,17.448 C11.744,17.592 11.564,17.664 11.372,17.664 L5.396,17.664 C4.976,17.664 4.772,17.448 4.772,17.016 L4.772,13.812 L12.164,13.812 Z M20.972,13.008 L19.94,13.656 C20.744,14.64 21.38,15.552 21.836,16.368 L22.904,15.624 C22.46,14.88 21.812,14.004 20.972,13.008 Z M20.72,8.124 C20.372,9.804 19.7,11.22 18.716,12.372 L19.496,13.404 C20.072,12.756 20.564,12.024 20.972,11.208 L23.912,11.208 C23.888,14.7 23.852,16.74 23.78,17.328 C23.708,17.832 23.432,18.084 22.964,18.084 C22.484,18.084 21.92,18.06 21.272,18.012 L21.584,19.164 C22.34,19.212 22.868,19.236 23.18,19.236 C24.236,19.236 24.824,18.792 24.956,17.916 C25.076,16.908 25.136,14.256 25.136,9.948 L21.512,9.948 C21.692,9.42 21.848,8.868 21.98,8.28 L20.72,8.124 Z M19.04,16.62 C17.78,17.04 16.304,17.376 14.612,17.628 L14.768,18.876 C16.364,18.624 17.792,18.3 19.04,17.892 L19.04,16.62 Z M16.388,8.076 C16.004,9.348 15.548,10.524 15.032,11.604 C14.864,11.844 14.684,12 14.492,12.096 L14.804,13.26 C15.404,13.164 15.968,13.068 16.52,12.972 C15.992,13.872 15.548,14.508 15.188,14.868 C15.032,15.012 14.84,15.144 14.624,15.24 L14.948,16.392 C16.184,16.236 17.504,15.936 18.896,15.48 L18.896,14.364 C18.08,14.628 17.264,14.844 16.472,15.012 C17.192,14.124 18.08,12.732 19.136,10.824 L17.924,10.368 C17.66,10.896 17.408,11.376 17.168,11.82 C16.76,11.892 16.364,11.952 15.968,12 C16.52,11.1 17.072,9.948 17.612,8.544 L16.388,8.076 Z" id="已约" stroke="#FFFFFF" stroke-width="0.4" fill="#FFFFFF" opacity="0.839999974" transform="translate(14.066000, 13.656000) rotate(-45.000000) translate(-14.066000, -13.656000) "></path>
            </g>
        </g>
    </g>
</svg>